<?xml version="1.0" standalone="no"?>
<!DOCTYPE svg PUBLIC "-//W3C//DTD SVG 20010904//EN"
 "http://www.w3.org/TR/2001/REC-SVG-20010904/DTD/svg10.dtd">
<svg version="1.0" xmlns="http://www.w3.org/2000/svg"
 width="500.000000pt" height="500.000000pt" viewBox="0 0 500.000000 500.000000"
 preserveAspectRatio="xMidYMid meet">
<metadata>
Created by potrace 1.16, written by Peter Selinger 2001-2019
</metadata>
<g transform="translate(0.000000,500.000000) scale(0.100000,-0.100000)"
fill="#000000" stroke="none">
<path d="M2144 4090 c-112 -22 -247 -124 -350 -261 -72 -97 -120 -129 -191
-129 -46 0 -57 9 -104 76 -16 24 -34 44 -39 44 -29 0 -21 -128 11 -197 20 -42
74 -92 114 -107 18 -7 17 -9 -10 -20 -69 -29 -179 -192 -220 -326 -9 -30 -23
-69 -31 -87 -8 -17 -14 -36 -14 -43 0 -35 -72 -295 -94 -337 -31 -61 -82 -88
-138 -73 -52 16 -88 13 -88 -7 0 -49 123 -157 219 -192 l59 -23 -33 -54 c-65
-107 -57 -250 21 -374 12 -20 48 -59 79 -88 49 -45 69 -56 122 -66 3 0 10 11
14 26 4 15 4 27 1 26 -21 -2 -32 3 -26 14 4 7 3 8 -5 4 -7 -5 -25 6 -46 27
-19 19 -36 32 -39 29 -6 -5 -9 15 -3 21 1 2 -9 14 -23 28 -25 24 -33 40 -34
71 0 9 -4 14 -8 12 -8 -5 -9 -2 -14 46 -1 14 -5 40 -9 58 -5 19 -4 32 2 32 6
0 9 11 7 25 -1 14 3 31 9 38 7 7 13 19 15 27 10 42 69 73 144 76 l58 2 0 -102
c0 -136 5 -238 13 -256 3 -8 8 -39 11 -68 3 -29 8 -58 12 -64 4 -6 8 -21 10
-32 6 -53 82 -261 128 -351 72 -140 117 -205 214 -306 184 -194 385 -295 612
-306 104 -5 233 12 300 40 14 6 27 11 30 12 3 0 27 11 54 23 27 12 51 22 53
22 3 0 39 23 80 51 l76 50 31 -29 c39 -38 99 -68 153 -77 31 -5 53 -2 87 14
25 11 46 24 46 29 0 5 -13 21 -30 35 -61 55 -26 125 102 202 45 28 99 66 120
86 22 20 38 30 38 22 0 -23 -29 -85 -56 -120 -22 -29 -24 -36 -13 -50 10 -11
24 -14 57 -9 96 13 218 111 269 214 24 49 28 69 28 145 0 48 0 87 0 87 0 0 21
-7 47 -15 109 -33 251 29 319 140 23 36 25 83 4 91 -8 3 -29 -6 -46 -20 -17
-14 -41 -29 -55 -32 -38 -10 -95 26 -129 81 -29 47 -30 53 -30 164 0 64 4 157
9 207 7 74 6 105 -9 170 -10 43 -19 84 -21 89 -4 20 -33 81 -54 112 -20 31
-20 31 -1 26 52 -13 160 58 188 124 15 38 17 82 3 103 -9 13 -12 13 -23 0 -43
-54 -100 -63 -147 -24 -61 51 -78 112 -96 334 -14 183 -120 392 -252 496 -157
124 -339 160 -547 109 -17 -4 -26 8 -57 72 -67 142 -134 195 -255 201 -64 4
-115 -14 -198 -68 -27 -17 -33 -18 -55 -5 -136 76 -268 106 -376 85z m581
-937 c-5 -14 -3 -15 5 -6 9 8 20 6 46 -9 19 -11 34 -24 34 -30 0 -5 4 -7 9 -3
6 3 13 0 18 -8 4 -7 20 -20 36 -30 15 -10 27 -24 27 -32 0 -8 5 -15 11 -15 5
0 7 -4 4 -10 -3 -5 0 -7 7 -5 13 5 52 -54 53 -80 0 -5 3 -13 8 -16 9 -7 17
-97 10 -115 -3 -8 -9 -11 -15 -8 -5 3 -8 -2 -6 -12 2 -11 -2 -18 -9 -17 -7 2
-10 -4 -7 -12 4 -8 2 -15 -4 -15 -6 0 -15 -13 -20 -29 -12 -34 1 -54 27 -41
22 12 73 24 90 21 7 -1 11 1 8 6 -3 5 20 25 50 46 31 20 53 37 48 37 -4 0 -2
6 5 14 6 8 18 12 25 10 13 -5 13 -13 -2 -51 -3 -10 -7 -22 -7 -26 -1 -4 -5
-11 -11 -15 -5 -4 -11 -14 -13 -22 -2 -8 -8 -16 -13 -18 -5 -2 -9 -8 -9 -14 0
-6 -10 -22 -22 -37 -18 -20 -33 -27 -66 -28 -46 -2 -192 -68 -192 -87 0 -5 -8
-1 -19 10 -10 10 -16 23 -13 28 3 5 0 6 -6 2 -6 -3 -20 6 -32 21 -12 16 -25
28 -28 28 -4 0 -6 3 -5 6 1 4 -8 5 -20 3 -19 -4 -19 -3 3 7 61 28 110 44 123
41 5 -1 6 2 2 8 -3 5 -1 10 4 10 6 0 11 15 11 34 0 27 -5 36 -22 42 -32 10
-118 11 -118 1 0 -5 -10 -7 -22 -5 -13 2 -31 -4 -41 -12 -10 -8 -19 -13 -21
-10 -6 8 -42 -42 -48 -67 -4 -16 -1 -24 14 -29 18 -5 18 -7 -7 -20 -15 -8 -32
-11 -38 -7 -6 4 -7 1 -2 -7 6 -10 4 -12 -8 -7 -10 3 -17 2 -17 -3 0 -19 -50
-59 -68 -54 -14 5 -15 4 -2 -5 13 -10 13 -13 -1 -24 -16 -12 -19 -18 -19 -37
0 -5 -5 -10 -11 -10 -5 0 -8 4 -5 9 3 5 -1 12 -10 15 -9 4 -14 13 -10 22 3 8
2 12 -3 9 -6 -3 -13 1 -18 8 -4 7 -15 16 -24 19 -9 4 -30 28 -47 54 -18 26
-32 44 -32 40 0 -4 -15 4 -32 18 -18 15 -38 30 -44 35 -22 17 -52 30 -57 24
-4 -3 -13 -1 -20 5 -8 7 -16 9 -19 6 -3 -3 -26 0 -49 7 -24 7 -52 11 -61 10
-10 -1 -18 3 -18 8 0 7 20 10 55 8 30 -2 55 1 55 5 0 5 5 6 10 3 6 -3 10 -2
10 2 0 5 10 9 22 10 11 1 25 8 29 15 5 7 9 9 9 5 0 -5 6 -2 14 5 37 35 58 48
68 42 6 -4 8 -3 4 4 -3 6 12 30 33 53 35 35 40 38 35 18 -22 -108 -22 -106 7
-150 15 -24 26 -46 23 -51 -3 -4 2 -5 10 -2 10 4 18 -1 22 -11 11 -28 73 -16
112 22 17 18 32 39 32 48 0 8 4 15 8 15 5 0 7 13 4 29 -4 26 -2 29 17 24 12
-3 21 -8 21 -12 0 -6 37 -10 98 -10 19 0 32 -5 32 -13 0 -10 2 -10 8 -1 5 8
26 12 54 10 26 -1 44 1 41 6 -3 5 1 8 8 6 33 -4 45 3 56 31 10 28 10 30 -11
30 -12 0 -28 10 -36 21 -8 12 -20 27 -27 34 -7 7 -9 15 -6 19 4 3 -1 6 -10 6
-18 0 -54 47 -44 57 4 3 0 11 -9 17 -8 6 -16 21 -17 34 0 12 -5 22 -9 22 -4 0
-8 20 -8 45 0 26 5 45 11 45 6 0 8 -7 4 -17z m-778 -63 c-3 -11 -1 -20 4 -20
5 0 7 -31 6 -69 -3 -57 -9 -76 -30 -104 -30 -39 -64 -52 -101 -37 -18 6 -26 6
-26 -1 0 -6 -6 -7 -12 -3 -7 3 4 -10 24 -30 20 -20 41 -36 47 -36 6 0 11 -5
11 -11 0 -5 4 -8 9 -4 5 3 16 -1 24 -9 8 -8 17 -12 21 -9 3 4 6 1 6 -5 0 -7 3
-11 8 -11 21 4 42 -2 42 -12 0 -6 -13 -8 -30 -5 -18 2 -30 0 -30 -7 0 -5 -3
-8 -6 -4 -9 9 -34 -19 -34 -38 0 -17 38 -72 46 -67 10 5 35 1 31 -5 -3 -5 6
-9 19 -10 54 -6 64 -8 64 -13 0 -4 20 -6 45 -5 25 0 45 -4 45 -9 0 -6 5 -4 10
4 5 8 10 12 10 8 0 -4 12 -1 27 7 18 10 32 11 45 4 27 -14 22 -21 -12 -15 -16
2 -30 0 -30 -5 0 -5 -8 -9 -17 -9 -10 0 -37 -11 -60 -24 -38 -22 -83 -26 -83
-7 0 4 -12 8 -27 9 -16 2 -41 5 -58 8 -49 7 -85 5 -85 -6 0 -3 -16 -12 -35
-19 -19 -7 -35 -16 -35 -21 0 -5 -8 -11 -17 -14 -10 -3 -31 -31 -48 -62 -28
-53 -32 -55 -62 -51 -18 3 -35 1 -39 -4 -3 -6 -12 -8 -19 -5 -8 3 -16 0 -19
-7 -2 -7 -4 7 -4 31 1 33 5 42 19 42 10 0 21 -5 24 -10 4 -6 11 -5 19 3 13 13
13 79 0 140 -4 19 -2 27 8 27 10 0 10 2 0 8 -16 10 0 95 29 160 20 45 75 109
90 105 5 -2 8 1 6 6 -1 4 26 36 61 69 34 34 62 66 62 72 0 6 5 8 12 4 7 -4 8
-3 4 5 -4 6 2 26 13 45 11 18 18 36 14 39 -3 4 -1 7 6 7 8 0 11 -8 8 -20z
m1643 -593 c0 6 83 -38 94 -51 29 -30 63 -85 75 -120 15 -44 22 -106 13 -121
-4 -5 -8 -28 -9 -50 -1 -22 -7 -41 -13 -43 -5 -2 -10 -10 -10 -18 0 -8 -8 -22
-18 -32 -10 -10 -22 -27 -25 -37 -4 -10 -10 -15 -14 -11 -3 3 -11 -4 -17 -15
-6 -12 -14 -20 -18 -18 -4 2 -13 -5 -21 -15 -9 -12 -19 -16 -28 -11 -8 5 -11
5 -7 0 10 -11 -44 -56 -59 -50 -7 2 -13 0 -13 -6 0 -6 -4 -8 -9 -5 -5 3 -11
-1 -15 -9 -3 -9 -12 -12 -22 -8 -12 4 -15 3 -10 -5 4 -8 0 -12 -12 -12 -10 0
-19 -7 -20 -15 -1 -8 -3 -22 -4 -30 -1 -8 -5 -15 -10 -15 -4 0 -7 -3 -6 -7 4
-17 -14 -93 -23 -93 -5 0 -8 -3 -7 -7 1 -5 -3 -18 -10 -29 -6 -12 -8 -24 -5
-28 3 -3 1 -6 -5 -6 -7 0 -11 -3 -10 -7 5 -26 -41 -122 -64 -131 -5 -2 -6 -8
-2 -13 3 -5 0 -9 -6 -9 -6 0 -8 -5 -5 -10 3 -6 -1 -13 -9 -16 -9 -3 -13 -10
-10 -15 3 -5 0 -9 -6 -9 -6 0 -9 -4 -6 -9 8 -12 -19 -33 -29 -23 -5 4 -5 1 -1
-5 4 -8 -4 -24 -21 -40 -15 -16 -25 -28 -23 -28 3 0 -2 -10 -11 -22 -9 -13
-19 -20 -22 -16 -4 3 -7 1 -7 -6 0 -13 -38 -52 -89 -91 -17 -14 -43 -35 -57
-47 -23 -21 -31 -24 -50 -22 -3 0 -13 -8 -22 -19 -24 -26 -109 -65 -128 -58
-9 3 -12 2 -9 -4 6 -9 -50 -27 -67 -22 -5 1 -8 -3 -8 -9 0 -5 -4 -8 -9 -5 -4
3 -22 1 -40 -4 -22 -6 -31 -5 -31 3 0 9 -2 9 -8 1 -8 -12 -155 -18 -148 -5 3
4 -17 6 -45 3 -28 -2 -49 1 -49 6 0 6 -9 8 -20 5 -11 -3 -20 -1 -20 5 0 6 -10
8 -22 4 -14 -3 -19 -1 -14 6 5 8 2 10 -8 6 -9 -4 -18 1 -22 10 -3 9 -10 13
-15 10 -12 -7 -99 35 -99 47 0 6 -4 7 -10 4 -5 -3 -10 -1 -10 4 0 6 -3 10 -7
9 -14 -5 -53 28 -45 37 4 5 2 5 -4 2 -16 -9 -106 61 -98 76 4 7 4 9 -1 5 -8
-7 -67 50 -112 108 -52 68 -63 82 -63 88 0 4 -10 20 -21 35 -13 17 -18 34 -14
42 5 7 4 10 -3 5 -12 -7 -45 51 -36 65 3 5 2 9 -3 9 -9 0 -33 48 -33 67 0 7
-4 13 -9 13 -14 0 -19 48 -7 60 8 8 7 10 -4 5 -11 -4 -20 8 -32 42 -11 30 -14
49 -7 52 5 1 3 8 -5 15 -10 6 -17 30 -18 58 -2 27 -6 48 -10 48 -4 0 -7 10 -7
23 1 12 -2 33 -5 47 -9 35 -27 220 -22 220 2 0 18 -7 36 -17 18 -9 47 -16 64
-15 33 1 63 -28 51 -49 -4 -5 -3 -8 2 -7 8 3 28 -15 139 -119 19 -18 34 -30
34 -26 0 3 11 -6 24 -20 13 -14 27 -23 30 -20 3 4 6 -1 6 -11 0 -11 4 -14 12
-10 7 5 9 2 5 -9 -4 -11 -2 -14 7 -11 8 3 23 -7 35 -22 11 -15 21 -24 21 -20
0 3 9 -3 20 -14 11 -11 31 -20 45 -20 14 0 34 9 45 20 11 11 18 20 16 20 -2 0
10 15 27 34 28 29 43 45 96 101 84 88 121 129 121 136 0 5 8 9 18 9 10 0 13
-3 6 -8 -15 -9 -44 -67 -44 -86 0 -8 -7 -19 -16 -24 -9 -5 -15 -13 -15 -18 1
-5 -8 -36 -19 -69 -11 -33 -20 -83 -21 -112 -2 -35 -6 -50 -13 -46 -6 4 1 -6
17 -22 15 -15 27 -34 27 -41 0 -7 9 -16 20 -19 11 -4 18 -11 15 -16 -3 -5 0
-6 8 -3 8 3 18 1 21 -4 3 -6 16 -8 29 -5 12 3 19 3 16 -1 -3 -4 -22 -9 -40
-11 -19 -2 -54 -11 -77 -19 -23 -8 -42 -13 -42 -11 0 2 -21 -15 -46 -38 -26
-23 -52 -41 -58 -39 -6 2 -8 0 -4 -3 10 -10 -11 -47 -22 -40 -6 3 -7 -1 -4 -9
3 -9 1 -16 -6 -16 -6 0 -8 -4 -5 -10 3 -5 2 -10 -3 -10 -6 0 -8 -9 -5 -20 3
-11 1 -20 -5 -20 -5 0 -9 -16 -8 -35 1 -19 -3 -35 -8 -35 -4 0 -4 -6 2 -12 5
-7 9 -25 7 -40 -2 -16 0 -28 5 -28 7 0 24 -57 21 -72 0 -5 4 -8 10 -8 5 0 7
-4 4 -10 -3 -5 -1 -10 6 -10 7 0 27 -16 44 -35 18 -19 35 -32 39 -28 3 3 6 -1
6 -10 0 -10 5 -14 15 -11 8 4 15 1 15 -6 0 -6 4 -9 9 -5 5 3 16 -1 24 -9 8 -8
17 -12 21 -9 3 4 6 2 6 -3 0 -5 12 -11 28 -12 15 -1 28 -6 29 -10 4 -9 110 -6
138 3 11 4 32 11 47 17 15 5 32 7 39 2 8 -5 9 -3 4 6 -6 10 -4 12 9 7 9 -4 15
-3 12 2 -6 10 44 47 57 43 5 -1 6 2 2 8 -3 5 -2 10 3 10 5 0 12 8 16 18 3 9
10 24 15 32 29 48 51 124 45 157 -3 15 -6 40 -7 55 -1 15 -6 28 -11 28 -5 0
-7 3 -3 6 8 8 -25 73 -58 112 -14 16 -25 34 -25 39 0 5 -10 9 -21 10 -12 1
-29 9 -38 17 -15 13 -83 38 -143 50 -26 6 -27 8 -15 33 9 21 9 27 -1 31 -7 2
-9 9 -6 14 4 6 2 8 -4 4 -6 -3 -17 0 -25 8 -8 8 -17 13 -20 10 -2 -3 -14 7
-26 22 -17 21 -19 29 -9 36 7 4 8 8 3 8 -6 0 -12 16 -13 35 -2 19 1 35 5 35 4
0 9 12 10 26 0 15 5 29 10 33 4 3 9 15 11 26 5 35 24 75 33 69 5 -3 6 2 3 10
-3 8 1 27 9 43 11 20 12 34 6 46 -8 13 -6 17 6 17 9 0 14 -4 11 -9 -4 -5 2 -7
12 -4 19 5 108 -55 103 -70 -1 -5 12 -21 30 -36 19 -17 29 -33 25 -40 -5 -7
-2 -10 6 -9 7 2 12 -3 11 -9 -2 -7 1 -12 6 -10 9 2 71 -58 71 -71 0 -12 43
-37 68 -38 12 -1 22 3 22 9 0 8 26 35 65 66 6 4 34 35 64 69 30 34 58 59 63
56 4 -3 8 0 8 7 0 6 20 31 44 55 24 23 42 45 38 48 -5 6 14 10 31 7 5 -1 5 3
2 9 -4 6 3 20 16 31 12 10 18 19 14 19 -4 0 0 9 11 21 10 11 26 18 36 16 10
-3 20 -1 23 4 3 4 11 6 18 3 17 -6 107 72 107 92 0 9 5 12 10 9 6 -3 10 -1 10
5 0 6 5 8 12 4 7 -4 8 -3 4 4 -9 16 46 72 81 81 15 4 45 4 65 1 21 -4 38 -6
38 -3z m-964 -29 c-29 -22 -56 -73 -56 -107 0 -20 52 -101 107 -166 19 -22 37
-45 41 -50 4 -6 26 -35 50 -66 41 -54 51 -79 33 -79 -5 0 -40 40 -79 88 -39
48 -77 94 -86 101 -9 7 -16 19 -16 25 0 6 -11 23 -25 38 -14 15 -25 31 -25 36
0 5 -6 15 -14 21 -21 18 -27 69 -12 105 16 39 60 76 90 76 19 -1 18 -3 -8 -22z
m-773 -73 c-48 -51 -56 -90 -27 -150 16 -35 111 -129 222 -221 58 -49 66 -64
35 -64 -13 0 -124 93 -229 192 -46 44 -84 108 -84 144 0 43 27 91 66 118 58
39 66 31 17 -19z"/>
</g>
</svg>
